<svg width="186" height="186" viewBox="0 0 186 186" fill="none" xmlns="http://www.w3.org/2000/svg">
<path d="M13.6129 101.715L0.641602 102.944L0.509724 101.551L13.481 100.323L13.6129 101.715Z" fill="white"/>
<path d="M13.0057 93.3974L0 92.6135L0.0736486 91.3915L11.4791 84.4224L11.4507 84.8937L0.505019 84.234L0.589189 82.8374L13.5949 83.6213L13.5212 84.8433L2.04589 91.8082L2.0743 91.3369L13.0898 92.0008L13.0057 93.3974Z" fill="white"/>
<path d="M14.6083 77.2605L2.02832 73.8684L3.14383 69.7314C3.48076 68.4818 4.03259 67.4653 4.79933 66.6818C5.55481 65.8953 6.47365 65.3763 7.55585 65.1247C8.6268 64.87 9.80393 64.9157 11.0873 65.2618C12.3593 65.6048 13.3999 66.157 14.2089 66.9186C15.0179 67.6801 15.5569 68.5923 15.8258 69.655C16.0947 70.7177 16.0607 71.8739 15.7238 73.1234L14.6083 77.2605ZM13.7061 75.5681L14.4574 72.7819C14.7184 71.8138 14.7419 70.9205 14.5279 70.102C14.3026 69.2805 13.8644 68.5767 13.2134 67.9906C12.5654 67.3932 11.7292 66.9564 10.7048 66.6802C9.68039 66.404 8.74358 66.3627 7.89436 66.5564C7.03388 66.747 6.3054 67.1423 5.70891 67.7422C5.10116 68.3391 4.66828 69.116 4.41027 70.0729L3.65901 72.859L13.7061 75.5681Z" fill="white"/>
<path d="M22.3644 56.4395C21.9411 57.2444 21.4004 57.9217 20.7424 58.4714C20.0795 59.0054 19.3465 59.3971 18.5434 59.6465C17.73 59.8906 16.8835 59.9722 16.0037 59.8915C15.1137 59.8054 14.2353 59.5344 13.3685 59.0785C12.5017 58.6226 11.7859 58.055 11.2209 57.3758C10.6457 56.6912 10.2333 55.9474 9.98389 55.1443C9.72412 54.3358 9.63159 53.5099 9.70632 52.6665C9.78647 51.8129 10.0382 50.9836 10.4616 50.1787C10.8849 49.3738 11.4281 48.7044 12.091 48.1705C12.749 47.6207 13.4847 47.2239 14.2981 46.9799C15.1011 46.7304 15.9426 46.646 16.8223 46.7267C17.702 46.8074 18.5753 47.0757 19.442 47.5316C20.3088 47.9875 21.0299 48.5578 21.6051 49.2424C22.17 49.9216 22.5824 50.6654 22.8421 51.474C23.0916 52.277 23.1814 53.1081 23.1116 53.9672C23.0368 54.8105 22.7878 55.6346 22.3644 56.4395ZM21.2036 55.8289C21.5564 55.1582 21.7528 54.4842 21.7928 53.8071C21.8382 53.1196 21.7449 52.4579 21.5129 51.8221C21.2809 51.1863 20.9329 50.608 20.469 50.0874C20.0106 49.5564 19.4511 49.1173 18.7907 48.7699C18.1406 48.4279 17.467 48.2185 16.7697 48.1416C16.0779 48.0543 15.4042 48.0952 14.7488 48.2643C14.0935 48.4333 13.4954 48.7313 12.9546 49.1583C12.4193 49.5749 11.9753 50.1186 11.6225 50.7893C11.2697 51.4601 11.0705 52.1392 11.0251 52.8266C10.9851 53.5038 11.0811 54.1603 11.3131 54.7961C11.5452 55.432 11.8904 56.0154 12.3489 56.5463C12.8127 57.067 13.3697 57.4983 14.0198 57.8402C14.6802 58.1876 15.3564 58.4049 16.0482 58.4921C16.7455 58.5691 17.4218 58.523 18.0772 58.354C18.7326 58.1849 19.3306 57.8869 19.8714 57.46C20.4121 57.033 20.8562 56.4893 21.2036 55.8289Z" fill="white"/>
<path d="M28.9344 45.2976L19.0117 36.8535L19.8051 35.9212L33.1093 37.2075L32.8032 37.5671L24.4522 30.4604L25.359 29.3949L35.2816 37.839L34.4882 38.7713L21.1308 37.4397L21.4368 37.0801L29.8411 44.2321L28.9344 45.2976Z" fill="white"/>
<path d="M39.9811 33.3887L31.8311 23.2231L38.3807 17.9721L39.2012 18.9955L33.7431 23.3714L36.5765 26.9054L41.7616 22.7484L42.5821 23.7717L37.397 27.9288L40.2522 31.4902L45.7103 27.1143L46.5307 28.1377L39.9811 33.3887Z" fill="white"/>
<path d="M55.2585 23.0989C54.5299 23.4919 53.7933 23.7104 53.0487 23.7544C52.3041 23.7984 51.602 23.7002 50.9424 23.4599C50.2774 23.2093 49.7054 22.8488 49.2265 22.3785L50.1105 21.3651C50.798 22.0011 51.5347 22.3721 52.3205 22.4781C53.1007 22.5738 53.8808 22.4113 54.6607 21.9906C55.1532 21.7249 55.5427 21.4155 55.8291 21.0623C56.1202 20.6933 56.2908 20.3098 56.3411 19.9118C56.3913 19.5137 56.314 19.1249 56.1092 18.7452C55.8048 18.1808 55.4156 17.8277 54.9417 17.6859C54.4678 17.5442 53.8992 17.5462 53.236 17.692L50.8413 18.1889C49.9033 18.3902 49.0643 18.3328 48.3241 18.0167C47.5942 17.6951 47.0383 17.1802 46.6564 16.4722C46.3298 15.8668 46.1907 15.2529 46.2392 14.6306C46.2822 13.9981 46.4882 13.41 46.8574 12.8664C47.2368 12.3173 47.7548 11.8656 48.4116 11.5114C49.0991 11.1405 49.784 10.9366 50.4662 10.8998C51.1532 10.8471 51.7972 10.9236 52.3983 11.1293C52.9994 11.3349 53.5177 11.6449 53.9531 12.0591L53.1081 13.0713C52.4965 12.5269 51.8349 12.2214 51.1234 12.1548C50.4221 12.0827 49.7226 12.2349 49.0248 12.6113C48.5836 12.8493 48.2351 13.1366 47.9795 13.4732C47.7342 13.8043 47.5967 14.1633 47.567 14.5502C47.5373 14.9372 47.6276 15.3256 47.8379 15.7156C48.0925 16.1876 48.4711 16.5332 48.9735 16.7523C49.4703 16.9612 50.0764 16.992 50.7917 16.8445L52.8986 16.4035C53.9456 16.1832 54.8355 16.1999 55.5685 16.4536C56.3015 16.7073 56.8729 17.2138 57.2825 17.9732C57.6146 18.5889 57.7489 19.2185 57.6855 19.8622C57.6267 20.49 57.3871 21.0895 56.9666 21.6608C56.5564 22.2265 55.9871 22.7059 55.2585 23.0989Z" fill="white"/>
<path d="M64.7243 18.5493L60.2695 6.30518L61.5843 5.82682L66.0391 18.0709L64.7243 18.5493Z" fill="white"/>
<path d="M71.3332 16.1741L73.3632 2.45295L74.8364 2.14946L82.1246 13.9508L80.6858 14.2473L78.9472 11.3556L73.2432 12.5308L72.7721 15.8777L71.3332 16.1741ZM73.4239 11.1543L78.2029 10.1697L74.106 3.3713L74.5171 3.28661L73.4239 11.1543Z" fill="white"/>
<path d="M100.187 13.9324C99.2694 13.8552 98.4407 13.6216 97.7013 13.2318C96.9628 12.8304 96.3339 12.3095 95.8144 11.669C95.3076 11.018 94.9315 10.2726 94.6862 9.43295C94.441 8.59329 94.3594 7.68549 94.4415 6.70955C94.5235 5.73362 94.7556 4.8522 95.1378 4.06531C95.5199 3.27842 96.0152 2.60636 96.6237 2.04912C97.2438 1.49286 97.9509 1.08432 98.7451 0.823514C99.5402 0.551088 100.397 0.45348 101.315 0.530689C102.198 0.604966 102.974 0.82827 103.645 1.2006C104.327 1.57391 104.886 2.0304 105.32 2.57005C105.767 3.09907 106.072 3.6454 106.235 4.20905L104.88 4.67421C104.618 3.89165 104.169 3.24548 103.534 2.73568C102.91 2.21524 102.134 1.91593 101.205 1.83774C100.252 1.7576 99.3847 1.91281 98.6031 2.30338C97.8214 2.69394 97.1872 3.27827 96.7005 4.05637C96.2148 4.82284 95.9265 5.74633 95.8356 6.82683C95.7457 7.89571 95.8757 8.85438 96.2255 9.70285C96.5754 10.5513 97.103 11.2334 97.8085 11.749C98.5149 12.2531 99.3445 12.5452 100.297 12.6253C101.227 12.7035 102.042 12.5439 102.742 12.1465C103.454 11.7501 104.004 11.1879 104.393 10.4601L105.652 11.1452C105.398 11.662 105.006 12.1497 104.476 12.6082C103.958 13.0561 103.332 13.4071 102.597 13.6612C101.873 13.9163 101.07 14.0066 100.187 13.9324Z" fill="white"/>
<path d="M116.849 17.276C115.983 16.9992 115.222 16.5848 114.566 16.0325C113.925 15.4728 113.411 14.8192 113.026 14.0718C112.644 13.3134 112.416 12.494 112.342 11.6136C112.272 10.7222 112.386 9.80998 112.684 8.87704C112.982 7.9441 113.416 7.14035 113.987 6.46578C114.561 5.78011 115.221 5.24453 115.969 4.85904C116.72 4.46244 117.517 4.2275 118.36 4.15421C119.215 4.08448 120.075 4.18798 120.942 4.4647C121.808 4.74143 122.562 5.15968 123.203 5.71947C123.859 6.27169 124.378 6.92704 124.76 7.68551C125.145 8.43287 125.375 9.24672 125.449 10.1271C125.522 11.0074 125.41 11.914 125.112 12.847C124.814 13.7799 124.378 14.5892 123.804 15.2749C123.234 15.9495 122.573 16.485 121.822 16.8816C121.075 17.2671 120.272 17.5003 119.414 17.5811C118.57 17.6544 117.716 17.5527 116.849 17.276ZM117.248 16.0265C117.97 16.2571 118.668 16.3331 119.342 16.2546C120.027 16.1796 120.662 15.9725 121.248 15.6333C121.834 15.2941 122.342 14.8508 122.774 14.3033C123.217 13.7594 123.552 13.1321 123.779 12.4212C124.003 11.7215 124.092 11.0217 124.046 10.3217C124.012 9.62521 123.854 8.969 123.573 8.35307C123.293 7.73713 122.895 7.20009 122.381 6.74196C121.877 6.28737 121.264 5.94478 120.542 5.71417C119.821 5.48357 119.117 5.40576 118.432 5.48073C117.758 5.55926 117.129 5.76813 116.543 6.10734C115.957 6.44656 115.443 6.88812 115 7.43203C114.568 7.97949 114.24 8.60307 114.017 9.30277C113.79 10.0136 113.694 10.7172 113.728 11.4137C113.774 12.1137 113.937 12.7717 114.217 13.3876C114.498 14.0035 114.896 14.5406 115.41 14.9987C115.925 15.4569 116.538 15.7994 117.248 16.0265Z" fill="white"/>
<path d="M128.971 21.724L135.706 10.5708L136.754 11.2037L137.275 19.8133L136.691 19.4607L144.539 15.905L145.587 16.5378L138.851 27.6911L137.654 26.9678L143.413 17.4314L143.712 17.8162L136.02 21.2824L135.96 21.2462L135.463 12.8346L135.927 12.9109L130.168 22.4473L128.971 21.724Z" fill="white"/>
<path d="M144.268 32.0749L152.772 22.2036L153.832 23.1168L145.328 32.9881L144.268 32.0749Z" fill="white"/>
<path d="M154.152 42.3092C153.558 41.6051 153.138 40.8537 152.891 40.055C152.653 39.2488 152.578 38.4356 152.664 37.6155C152.766 36.7968 153.028 36.0041 153.449 35.2373C153.87 34.4704 154.455 33.7713 155.204 33.1399C155.952 32.5085 156.74 32.05 157.567 31.7644C158.394 31.4789 159.219 31.3546 160.043 31.3915C160.875 31.4373 161.664 31.6491 162.41 32.0269C163.164 32.3971 163.838 32.9343 164.432 33.6384C165.004 34.3157 165.394 35.0233 165.605 35.761C165.823 36.5076 165.894 37.2252 165.819 37.9139C165.76 38.6039 165.589 39.2058 165.306 39.7195L164.019 39.089C164.388 38.3508 164.528 37.5767 164.44 36.7666C164.368 35.9579 164.031 35.197 163.43 34.484C162.813 33.7532 162.091 33.2492 161.262 32.9719C160.433 32.6947 159.572 32.6587 158.677 32.864C157.792 33.0619 156.934 33.5103 156.106 34.2094C155.286 34.901 154.699 35.6703 154.346 36.5173C153.992 37.3643 153.883 38.2196 154.016 39.0832C154.158 39.9393 154.538 40.7327 155.154 41.4635C155.756 42.1765 156.444 42.6405 157.22 42.8553C158.004 43.0791 158.791 43.0715 159.58 42.8324L159.985 44.2072C159.44 44.3925 158.818 44.4597 158.119 44.4086C157.436 44.3589 156.745 44.1636 156.046 43.8229C155.354 43.4911 154.723 42.9866 154.152 42.3092Z" fill="white"/>
<path d="M166.466 62.6926C166.107 61.8443 165.928 61.0023 165.929 60.1664C165.94 59.3259 166.109 58.5268 166.434 57.7689C166.774 57.0172 167.259 56.3374 167.887 55.7295C168.516 55.1215 169.282 54.6267 170.184 54.245C171.086 53.8634 171.974 53.6585 172.848 53.6303C173.723 53.6022 174.548 53.7277 175.324 54.0068C176.105 54.2967 176.796 54.7324 177.397 55.3138C178.008 55.8907 178.493 56.6033 178.852 57.4516C179.197 58.2676 179.361 59.0591 179.344 59.8261C179.331 60.6037 179.187 61.3104 178.912 61.946C178.652 62.5878 178.31 63.1121 177.887 63.5189L176.844 62.5359C177.415 61.9399 177.778 61.2419 177.933 60.4419C178.104 59.6481 178.007 58.8217 177.644 57.9627C177.271 57.0823 176.73 56.387 176.021 55.877C175.311 55.367 174.499 55.0778 173.584 55.0093C172.679 54.9362 171.728 55.111 170.729 55.5335C169.741 55.9515 168.953 56.5128 168.365 57.2174C167.777 57.922 167.419 58.7065 167.291 59.571C167.174 60.4308 167.302 61.301 167.674 62.1815C168.038 63.0405 168.558 63.6874 169.236 64.1222C169.918 64.5678 170.672 64.7933 171.497 64.7986L171.477 66.2315C170.901 66.2472 170.287 66.1273 169.634 65.8716C168.997 65.6222 168.395 65.2314 167.828 64.6991C167.265 64.1775 166.811 63.5087 166.466 62.6926Z" fill="white"/>
<path d="M171.264 78.9955C171.105 78.1 171.118 77.2334 171.301 76.3959C171.498 75.5677 171.838 74.8091 172.32 74.12C172.813 73.4289 173.432 72.8458 174.177 72.3707C174.933 71.8936 175.794 71.5698 176.758 71.3992C177.722 71.2287 178.636 71.2388 179.498 71.4297C180.372 71.6184 181.154 71.9538 181.843 72.4358C182.544 72.9158 183.123 73.512 183.58 74.2243C184.04 74.9482 184.349 75.7579 184.507 76.6534C184.665 77.549 184.646 78.4108 184.449 79.2389C184.266 80.0765 183.927 80.8408 183.434 81.5319C182.952 82.221 182.339 82.8031 181.594 83.2782C180.849 83.7533 179.994 84.0761 179.03 84.2467C178.066 84.4172 177.146 84.4081 176.272 84.2193C175.41 84.0285 174.628 83.6931 173.928 83.2131C173.238 82.7311 172.658 82.1292 172.187 81.4074C171.73 80.695 171.422 79.891 171.264 78.9955ZM172.555 78.7671C172.687 79.5134 172.945 80.1664 173.328 80.7262C173.713 81.2974 174.192 81.7633 174.765 82.1237C175.338 82.4842 175.967 82.7281 176.653 82.8555C177.34 82.9944 178.052 82.9989 178.786 82.8689C179.51 82.741 180.17 82.4939 180.769 82.1276C181.369 81.7728 181.876 81.3279 182.291 80.7928C182.705 80.2577 182.996 79.6558 183.162 78.9871C183.329 78.3299 183.347 77.6281 183.215 76.8819C183.083 76.1356 182.825 75.4768 182.44 74.9056C182.057 74.3458 181.579 73.8857 181.006 73.5252C180.433 73.1648 179.803 72.9151 179.115 72.7762C178.429 72.6488 177.725 72.6491 177.002 72.777C176.267 72.9069 175.599 73.1493 174.999 73.5041C174.401 73.8704 173.894 74.3211 173.48 74.8562C173.065 75.3912 172.775 75.9931 172.609 76.6618C172.443 77.3305 172.425 78.0323 172.555 78.7671Z" fill="white"/>
<path d="M172.895 91.8279L185.91 92.4246L185.854 93.6475L174.55 100.78L174.572 100.308L185.526 100.81L185.462 102.208L172.446 101.611L172.502 100.388L183.876 93.2592L183.854 93.7309L172.83 93.2255L172.895 91.8279Z" fill="white"/>
</svg>
