<svg width="2000" height="1686" viewBox="0 0 2000 1686" fill="none" xmlns="http://www.w3.org/2000/svg">
<path fill-rule="evenodd" clip-rule="evenodd" d="M1267.93 0L1132.29 437.56L1307.31 0H1267.93ZM0 59.75L666.57 567.59L8.44 8.79004L0 59.75ZM47.81 20.91L367.03 288.19L94.22 20.91H47.81ZM981.57 479.73L972.16 8.79004H1001.84L981.57 479.73ZM1393.6 713.42C1393.6 713.42 1981.42 493.76 1996.89 492V539.42L1393.6 713.42ZM1996.89 973.52L1425.95 910.26L1996.89 1003.39V973.52ZM1365.66 1179.99C1365.66 1179.99 1994.08 1678.21 1996.89 1685.21H1947.66L1365.66 1179.99ZM1330.32 1685.21L1162.98 1237.11L1303.6 1685.21H1330.32ZM625.78 1103.56L0 1534.09L8.44 1570.99L625.78 1103.56ZM0 934.86L480.94 903.23L0 977.03V934.86ZM555.47 750.35L0 685.33V655.46L555.47 750.35ZM1753.83 8.79004L1330.47 446.09L1798.55 8.79004H1753.83ZM583.24 336.78L272.56 8.79004H300.81L583.24 336.78ZM318.34 8.79004L513.12 233.36L333.28 8.79004H318.34ZM806.27 457.93L612.46 8.79004H636.81L806.27 457.93ZM774.13 8.79004L856.91 414.67L763.41 8.79004H774.13ZM798.08 246.52L746.71 20.91H727.65L798.08 246.52ZM467.93 15.7L655.39 307.88L482.2 15.7H467.93ZM1223.12 296.93L1332.23 8.79004H1349.78L1223.12 296.93ZM1237.66 7.31995L1176.87 220.24L1224.27 7.93994L1237.66 7.31995ZM1489.34 256.34L1717.56 8.79004H1695.24L1489.34 256.34ZM1988.42 240.41L1577.42 499.72L1989.75 282.9L1988.42 240.41ZM1437.75 536.45L1982.1 185.51L1982.77 207.05L1437.75 536.45ZM7.69 246.52L442.15 510.72L7.69 267.56V246.52ZM253.55 429.7L11.06 288.45V306.49L253.55 429.7ZM14.08 527.44L427.9 660.01L14.08 552.69V527.44ZM14.08 459.02L11.06 457.93V472.73L333.28 573.74L14.08 459.02ZM7.79999 1132.38L578.83 960.76L7.79999 1160.6V1132.38ZM320.13 1241.71L7.79999 1416.87V1439.2L320.13 1241.71ZM94.35 1676.66L537.44 1281.68L111.28 1685.21L94.35 1676.66ZM897.74 1346.33L844.12 1675.49C844.12 1675.49 865.76 1680.2 870.93 1675.49C876.1 1670.78 897.74 1346.33 897.74 1346.33ZM1986.28 13.6L1695.24 249.52L1991.73 22.6899L1986.28 13.6ZM1509.83 724.63C1509.83 724.63 1994.72 600.74 1996.89 602.74V624.63L1509.83 724.63ZM1992.76 656.24L1625.07 721.33L1992.28 673.32L1992.76 656.24ZM1675.33 873.44C1675.33 873.44 1992.67 868.21 1996.89 866.5V862.22C1996.89 862.22 1997.45 881.87 1996.89 884.44C1996.33 887.01 1675.33 873.44 1675.33 873.44ZM1999.59 1188.34C1993.7 1186.93 1480.15 1035.34 1480.15 1035.34L1994.99 1205.34L1999.59 1188.34ZM1723.77 1054.52L1994.36 1123.6L1994.53 1128.73L1994.86 1138.97L1723.77 1054.52ZM1994.59 1449.05L1623.23 1252.21L1994.59 1470.41V1449.05ZM1414.77 1361.31L1758.09 1680.93H1726.63L1414.77 1361.31ZM1548.13 1680.93L1297.14 1326.27L1533.08 1680.93H1548.13ZM751.98 1149.95L293.32 1672.17L312.89 1677.58L751.98 1149.95ZM422.83 1671.01L703.9 1272.42L441.32 1677.58L422.83 1671.01ZM763.08 1203.1L474.61 1677.58H512.51L763.08 1203.1ZM927.65 1677.58L960.01 1179.99L947.99 1680.93L927.65 1677.58ZM1077.43 1262.02L1145.85 1677.58H1162.98L1077.43 1262.02ZM1184.68 1680.93L1124.58 1413.76L1193 1677.58L1184.68 1680.93ZM787.11 1346.21L687.26 1677.58H699.28L787.11 1346.21ZM600.35 1668.18L694.66 1440.34L612.37 1669.33L600.35 1668.18ZM1285.46 1430.46L1393.63 1672.17H1403.81L1285.46 1430.46ZM1643.27 1677.58L1491.64 1503.6L1654.37 1677.58H1643.27ZM1565.61 1288.59L1996.89 1638.66L1997.14 1622.49L1565.61 1288.59ZM3.48999 903.23L416.96 885.95H3.48999V903.23ZM951.99 221.69L949.63 20.91H929.66L951.99 221.69Z" fill="white"/>
</svg>
