<svg width="78" height="114" viewBox="0 0 78 114" fill="none" xmlns="http://www.w3.org/2000/svg">
<g clip-path="url(#clip0_1223_18295)">
<path fill-rule="evenodd" clip-rule="evenodd" d="M33.7191 7.29004L1.11914 17.72L27.5091 51.57L16.6991 55.03L75.8991 111.68L47.0591 60.26L60.2391 56.05L33.7191 7.29004Z" fill="#010101"/>
<path d="M1.91778e-07 17.7201C0.00195949 17.6084 0.0187736 17.4974 0.0500002 17.3901C0.102813 17.217 0.196815 17.0592 0.323953 16.9303C0.45109 16.8014 0.607574 16.7053 0.78 16.6501L33.38 6.23012C33.6287 6.14931 33.8978 6.15806 34.1407 6.25486C34.3837 6.35166 34.585 6.53041 34.71 6.76012L61.22 55.5101C61.3003 55.6543 61.3475 55.8147 61.358 55.9794C61.3685 56.1442 61.3422 56.3092 61.2809 56.4625C61.2196 56.6157 61.1248 56.7534 61.0036 56.8655C60.8823 56.9775 60.7376 57.0611 60.58 57.1101L48.71 60.9101L76.88 111.13C77.0125 111.364 77.0563 111.638 77.0036 111.902C76.9508 112.165 76.8049 112.401 76.5926 112.566C76.3803 112.731 76.1157 112.814 75.8471 112.8C75.5786 112.786 75.324 112.676 75.13 112.49L15.92 55.8401C15.7811 55.7053 15.6796 55.5368 15.6253 55.351C15.5709 55.1652 15.5657 54.9685 15.61 54.7801C15.6517 54.5922 15.7419 54.4184 15.8718 54.2763C16.0017 54.1341 16.1666 54.0286 16.35 53.9701L25.64 50.9701L0.24 18.4101C0.0844363 18.2138 -0.000146998 17.9706 1.91778e-07 17.7201ZM33.18 8.64012L3 18.3001L28.4 50.8901C28.5075 51.0329 28.5797 51.1992 28.6105 51.3753C28.6412 51.5514 28.6298 51.7323 28.5771 51.9031C28.5244 52.0739 28.4319 52.2298 28.3072 52.3579C28.1826 52.486 28.0293 52.5827 27.86 52.6401L18.86 55.5201L71.29 105.69L46.08 60.8101C45.9952 60.6588 45.9458 60.4902 45.9354 60.317C45.925 60.1438 45.9539 59.9705 46.02 59.8101C46.0803 59.6561 46.1746 59.5177 46.2958 59.4052C46.417 59.2926 46.562 59.2089 46.72 59.1601L58.61 55.3501L33.18 8.64012Z" fill="#010101"/>
<path fill-rule="evenodd" clip-rule="evenodd" d="M31.4106 42.5798L12.1406 9.84984L29.8406 0.839844L46.0206 4.99984L66.0806 56.8998L73.7906 58.7898L52.3806 58.8598L76.3006 112.35L23.3106 48.6398L31.4106 42.5798Z" fill="#F8951D"/>
<path d="M11.3008 9.84993C11.2995 9.69437 11.3419 9.54157 11.4233 9.40896C11.5046 9.27635 11.6216 9.16927 11.7608 9.09993L29.4608 0.0999302C29.6392 -0.00295798 29.8485 -0.0384409 30.0508 -6.9825e-05L46.2308 4.18993C46.3609 4.2231 46.4813 4.28661 46.5821 4.37525C46.6829 4.4639 46.7613 4.57516 46.8108 4.69993L66.7008 56.1899L74.0008 57.9999C74.2045 58.0449 74.3842 58.1641 74.5048 58.3343C74.6255 58.5045 74.6785 58.7135 74.6535 58.9206C74.6286 59.1277 74.5274 59.3181 74.3698 59.4548C74.2122 59.5915 74.0094 59.6646 73.8008 59.6599L53.6808 59.7299L77.0608 112C77.1329 112.178 77.1403 112.375 77.0818 112.558C77.0234 112.741 76.9027 112.897 76.7408 113C76.5686 113.106 76.3643 113.147 76.1645 113.116C75.9647 113.085 75.7826 112.983 75.6508 112.83L22.6508 49.1199C22.5766 49.0322 22.5213 48.93 22.4886 48.8199C22.4559 48.7097 22.4464 48.5939 22.4608 48.4799C22.4728 48.3671 22.5084 48.2581 22.5653 48.1599C22.6221 48.0617 22.699 47.9765 22.7908 47.9099L30.2908 42.2999L11.4108 10.2799C11.3396 10.1477 11.3018 10.0001 11.3008 9.84993ZM29.9408 1.72993L13.3108 10.1899L32.1308 42.1899C32.2378 42.366 32.2746 42.5759 32.2338 42.7779C32.193 42.9799 32.0777 43.1591 31.9108 43.2799L24.5208 48.8199L73.0008 107.12L51.6108 59.1999C51.55 59.0718 51.5227 58.9304 51.5313 58.7889C51.5399 58.6473 51.5842 58.5103 51.6601 58.3905C51.736 58.2707 51.8409 58.1721 51.9652 58.1038C52.0895 58.0355 52.229 57.9998 52.3708 57.9999H66.9308L65.8808 57.7499C65.75 57.7183 65.6289 57.6553 65.5279 57.5665C65.4268 57.4777 65.3489 57.3656 65.3008 57.2399L45.4008 5.70993L29.9408 1.72993Z" fill="#010101"/>
<path fill-rule="evenodd" clip-rule="evenodd" d="M63.8998 4.32984L29.8398 0.839844L45.5798 41.5898L34.2898 40.4298L76.2998 112.35L60.0198 57.3798L73.7898 58.7898L63.8998 4.32984Z" fill="#FDCE0F"/>
<path d="M29 0.839808C29.0014 0.656124 29.0609 0.477598 29.17 0.329808C29.2586 0.215251 29.3748 0.124939 29.5076 0.0672488C29.6405 0.00955909 29.7858 -0.0136387 29.93 -0.000192277L64 3.49981C64.1796 3.51977 64.3482 3.59645 64.4813 3.71873C64.6143 3.84101 64.705 4.00252 64.74 4.17981L74.63 58.6398C74.654 58.7679 74.6474 58.8998 74.611 59.0249C74.5745 59.15 74.5091 59.2647 74.42 59.3598C74.3322 59.4555 74.223 59.5289 74.1013 59.5741C73.9796 59.6193 73.8489 59.635 73.72 59.6198L61.18 58.3398L77.1 112.11C77.1563 112.306 77.1392 112.516 77.0518 112.701C76.9644 112.885 76.8128 113.032 76.6253 113.113C76.4378 113.194 76.2272 113.203 76.033 113.14C75.8387 113.077 75.6741 112.945 75.57 112.77L33.57 40.8498C33.4864 40.7183 33.442 40.5657 33.442 40.4098C33.442 40.254 33.4864 40.1013 33.57 39.9698C33.6547 39.8407 33.773 39.7371 33.9122 39.6701C34.0514 39.6032 34.2062 39.5754 34.36 39.5898L44.28 40.5898L29.06 1.13981C29.0209 1.0446 29.0005 0.942736 29 0.839808ZM63.18 5.09981L31.12 1.80981L46.36 41.2798C46.4122 41.414 46.429 41.5594 46.4089 41.7019C46.3887 41.8445 46.3323 41.9795 46.2449 42.0939C46.1576 42.2084 46.0422 42.2985 45.91 42.3556C45.7779 42.4126 45.6332 42.4347 45.49 42.4198L35.85 41.4198L73.53 105.93L59.22 57.6098C59.1809 57.4782 59.1751 57.339 59.203 57.2047C59.2309 57.0703 59.2917 56.9449 59.38 56.8398C59.4684 56.7345 59.5809 56.6522 59.7081 56.5999C59.8352 56.5477 59.9731 56.5271 60.11 56.5398L72.76 57.8398L63.18 5.09981Z" fill="#010101"/>
<path d="M33.7811 39.7517L30.8984 41.9082L31.9048 43.2534L34.7874 41.0969L33.7811 39.7517Z" fill="#010101"/>
</g>
<defs>
<clipPath id="clip0_1223_18295">
<rect width="77.14" height="113.19" fill="white"/>
</clipPath>
</defs>
</svg>
